<?xml version="1.0" encoding="UTF-8"?>
<svg xmlns="http://www.w3.org/2000/svg" xmlns:xlink="http://www.w3.org/1999/xlink" width="384pt" height="383.999986pt" viewBox="0 0 384 383.999986" version="1.2">
<defs>
<clipPath id="clip1">
  <path d="M 4.796875 5.148438 L 380.546875 5.148438 L 380.546875 380.898438 L 4.796875 380.898438 Z M 4.796875 5.148438 "/>
</clipPath>
</defs>
<g id="surface1">
<rect x="0" y="0" width="384" height="383.999986" style="fill:rgb(100%,100%,100%);fill-opacity:1;stroke:none;"/>
<rect x="0" y="0" width="384" height="383.999986" style="fill:rgb(100%,100%,100%);fill-opacity:1;stroke:none;"/>
<path style=" stroke:none;fill-rule:nonzero;fill:rgb(100%,100%,100%);fill-opacity:1;" d="M 371.535156 193.023438 C 371.535156 291.78125 291.429688 371.886719 192.671875 371.886719 C 93.914062 371.886719 13.808594 291.78125 13.808594 193.023438 C 13.808594 94.265625 93.914062 14.160156 192.671875 14.160156 C 291.429688 14.160156 371.535156 94.265625 371.535156 193.023438 Z M 371.535156 193.023438 "/>
<g clip-path="url(#clip1)" clip-rule="nonzero">
<path style=" stroke:none;fill-rule:nonzero;fill:rgb(1.959229%,11.759949%,5.488586%);fill-opacity:1;" d="M 257.550781 251.953125 L 242.59375 251.953125 L 242.59375 147.339844 L 257.550781 147.339844 C 259.890625 147.339844 261.785156 149.230469 261.785156 151.574219 L 261.785156 247.808594 C 261.695312 250.0625 259.800781 251.953125 257.550781 251.953125 Z M 294.945312 216.179688 L 294.945312 183.292969 C 294.945312 180.949219 293.050781 179.054688 290.710938 179.054688 L 285.304688 179.054688 L 285.304688 220.324219 L 290.710938 220.324219 C 293.050781 220.324219 294.945312 218.433594 294.945312 216.179688 Z M 135.453125 189.238281 L 135.453125 208.339844 L 238.175781 208.339844 L 238.175781 189.238281 Z M 280.976562 232.851562 L 280.976562 166.082031 C 280.976562 163.738281 279.085938 161.847656 276.742188 161.847656 L 266.109375 161.847656 L 266.109375 236.996094 L 276.832031 236.996094 C 279.175781 236.996094 280.976562 235.105469 280.976562 232.851562 Z M 116.082031 251.414062 L 131.039062 251.414062 L 131.039062 146.796875 L 116.082031 146.796875 C 113.738281 146.796875 111.84375 148.691406 111.84375 151.03125 L 111.84375 247.269531 C 111.933594 249.519531 113.828125 251.414062 116.082031 251.414062 Z M 82.921875 219.785156 L 88.328125 219.785156 L 88.328125 178.515625 L 82.921875 178.515625 C 80.578125 178.515625 78.6875 180.40625 78.6875 182.75 L 78.6875 215.640625 C 78.6875 217.894531 80.578125 219.785156 82.921875 219.785156 Z M 96.796875 236.457031 L 107.519531 236.457031 L 107.519531 161.304688 L 96.796875 161.304688 C 94.453125 161.304688 92.5625 163.199219 92.5625 165.539062 L 92.5625 232.21875 C 92.652344 234.5625 94.453125 236.457031 96.796875 236.457031 Z M 380.546875 193.023438 C 380.546875 89.398438 296.296875 5.148438 192.671875 5.148438 C 89.046875 5.148438 4.796875 89.398438 4.796875 193.023438 C 4.796875 296.648438 89.046875 380.898438 192.671875 380.898438 C 296.296875 380.898438 380.546875 296.648438 380.546875 193.023438 Z M 362.527344 193.023438 C 362.527344 286.644531 286.292969 362.875 192.671875 362.875 C 99.050781 362.875 22.820312 286.644531 22.820312 193.023438 C 22.820312 99.402344 99.050781 23.167969 192.671875 23.167969 C 286.292969 23.167969 362.527344 99.402344 362.527344 193.023438 Z M 362.527344 193.023438 "/>
</g>
</g>
</svg>
