<?xml version="1.0" encoding="UTF-8"?>
<svg xmlns="http://www.w3.org/2000/svg" xmlns:xlink="http://www.w3.org/1999/xlink" width="384pt" height="383.999986pt" viewBox="0 0 384 383.999986" version="1.2">
<g id="surface1">
<rect x="0" y="0" width="384" height="383.999986" style="fill:rgb(100%,100%,100%);fill-opacity:1;stroke:none;"/>
<rect x="0" y="0" width="384" height="383.999986" style="fill:rgb(100%,100%,100%);fill-opacity:1;stroke:none;"/>
<path style=" stroke:none;fill-rule:nonzero;fill:rgb(0%,0%,0%);fill-opacity:1;" d="M 367.425781 226.058594 C 367.195312 238.171875 362.269531 247.886719 357.039062 258.464844 C 347.242188 278.371094 337.683594 297.679688 325.371094 316.152344 C 309.996094 339.273438 288.351562 351.125 264.453125 358.75 C 264.332031 356.929688 263.851562 355.082031 263.289062 353.257812 C 276.382812 350.582031 289.777344 341.683594 298.761719 332.738281 C 311.757812 319.710938 324.890625 306.75 335.214844 291.359375 C 345.730469 275.699219 352.6875 254.0625 357.292969 235.914062 C 359.570312 226.992188 361.394531 215.359375 361.105469 206.398438 C 361.058594 204.242188 361.164062 202.082031 361.019531 200.03125 C 363.011719 200.066406 365.003906 200.234375 367.015625 200.320312 C 367.101562 208.882812 367.59375 217.46875 367.425781 226.058594 Z M 253.816406 327.554688 C 249.644531 320.9375 245.890625 313.082031 242.820312 305.898438 C 240.683594 300.941406 234.59375 298.699219 231.273438 294.777344 C 227.121094 289.945312 217.542969 292.980469 211.796875 292.980469 C 206.222656 291.503906 199.625 290.988281 192.898438 290.988281 C 186.757812 290.988281 180.476562 291.421875 174.753906 291.9375 C 162.847656 290.820312 151.445312 287.042969 142.292969 297.105469 C 131.203125 309.339844 125.433594 325.625 114.378906 337.65625 C 110.230469 336.71875 105.707031 334.753906 101.296875 332.28125 C 107.722656 324.628906 112.53125 315.105469 118.441406 307.035156 C 126.910156 295.425781 132.367188 276.667969 146.382812 270.636719 C 158.949219 271.261719 210.261719 273.082031 237.363281 275.925781 C 241.03125 281.609375 243.585938 285.507812 246.453125 290.84375 C 249.644531 296.734375 254.355469 300.835938 256.695312 307.289062 C 258.792969 313.054688 263.851562 318.117188 267.125 323.324219 C 270.304688 328.382812 273.375 334.152344 275.90625 339.753906 C 271.46875 342.199219 266.898438 344.023438 262.378906 344.933594 C 259.417969 339.25 257.316406 333.109375 253.816406 327.554688 Z M 155.460938 308.703125 C 160.664062 300.917969 166.769531 301.519531 175.980469 301.519531 C 176.496094 301.519531 176.972656 301.519531 177.453125 301.519531 C 177.765625 301.519531 178.089844 300.882812 178.363281 300.882812 C 178.710938 300.917969 179.046875 300.546875 179.335938 300.488281 C 188.148438 300.488281 196.941406 300.402344 205.71875 300.402344 C 219.078125 300.402344 220.527344 309.421875 227.578125 318.382812 C 231.558594 323.429688 235.9375 332.820312 235.023438 339.273438 C 235 339.441406 235 339.585938 235 339.753906 C 221.667969 347.320312 200.597656 346.433594 186.433594 346.433594 C 175.066406 346.433594 159.777344 345.246094 149.597656 339.695312 C 138.253906 333.503906 151.359375 314.855469 155.460938 308.703125 Z M 219.988281 369.328125 C 208.621094 371.609375 197.359375 373.5625 185.738281 373.910156 C 174.085938 374.246094 162.511719 370.660156 151.15625 368.382812 C 140.449219 366.199219 129.535156 361.796875 119.042969 356.699219 C 119.976562 355.105469 120.085938 353.175781 120.578125 351.445312 C 121.203125 349.3125 121.992188 347.152344 122.796875 345.066406 C 123.25 343.878906 122.902344 342.570312 122.160156 341.550781 C 128.5625 333.875 133.503906 324.113281 138.683594 315.707031 C 141.984375 310.359375 145.929688 305.523438 150.136719 300.882812 C 150.160156 300.859375 150.195312 300.835938 150.222656 300.835938 C 148.855469 302.597656 147.414062 304.757812 145.652344 307.394531 C 139.765625 316.246094 133.445312 328.863281 135.949219 339.609375 C 138.277344 349.503906 159.839844 351.988281 167.140625 352.980469 C 181.832031 354.996094 195.597656 355.105469 210.359375 353.882812 C 220.78125 353.03125 233.71875 351.613281 242.363281 345.125 C 244.546875 343.484375 244.546875 340.785156 243.445312 338.925781 C 243.695312 330.972656 240.375 322.578125 236.417969 315.839844 C 233.96875 311.664062 231.789062 307.707031 229.339844 304.242188 C 229.714844 304.492188 230.085938 304.734375 230.421875 305.007812 C 234.59375 308.425781 235.996094 312.683594 239.007812 316.953125 C 245.601562 326.25 249.128906 337.90625 254.378906 348.054688 C 253.757812 348.941406 253.480469 350.105469 253.851562 351.472656 C 254.1875 352.695312 254.476562 353.917969 254.789062 355.164062 C 255.097656 356.449219 255.988281 357.898438 256.011719 359.171875 C 256.035156 359.792969 256.09375 360.476562 256.214844 361.160156 C 244.402344 364.4375 232.183594 366.882812 219.988281 369.328125 Z M 112.554688 348.460938 C 112.28125 349.421875 112.015625 350.390625 111.703125 351.328125 C 111.582031 351.867188 111.535156 352.382812 111.558594 352.921875 L 111.535156 352.921875 C 111.535156 352.839844 111.535156 352.800781 111.417969 352.800781 L 111.417969 352.839844 C 106.308594 350.164062 101.332031 347.429688 96.605469 344.753906 C 61.097656 324.859375 36.539062 288.664062 24.226562 250.390625 C 21.503906 242.007812 22.269531 231.492188 19.910156 222.640625 C 16.921875 211.4375 16.839844 200.320312 17.316406 188.867188 C 19.765625 188.722656 24.367188 188.578125 27.894531 189.035156 C 28.289062 192.5 29.261719 200.632812 30.820312 210.980469 C 30.222656 213.488281 30.59375 217.183594 31.9375 218.179688 C 35.339844 239.609375 40.796875 266.992188 48.171875 282.832031 C 59.851562 307.933594 84.015625 340.246094 113.464844 345.929688 C 113.15625 346.78125 112.84375 347.609375 112.554688 348.460938 Z M 34.863281 123.550781 C 44.898438 95.007812 68.355469 71.273438 94.699219 54.289062 C 95.214844 55.742188 96.042969 57.109375 96.976562 58.355469 C 98.09375 59.832031 98.96875 61.484375 99.964844 63.058594 C 99.820312 63.5 99.761719 64.015625 99.820312 64.59375 C 100.214844 68.332031 101.644531 71.894531 102.265625 75.648438 C 102.578125 77.582031 103.09375 79.425781 103.742188 81.214844 C 88.957031 86.960938 75.203125 97.992188 67.261719 111.726562 C 56.183594 130.914062 45.175781 151.902344 41.335938 173.996094 C 41.167969 174.988281 41.3125 175.902344 41.683594 176.632812 C 40.652344 176.921875 39.660156 177.207031 38.640625 177.402344 C 34.800781 178.144531 30.507812 178.71875 26.960938 180.339844 C 26.960938 180.339844 26.960938 180.339844 26.933594 180.339844 C 23.972656 180.160156 20.964844 180.339844 18 180.421875 C 20.386719 160.488281 28.183594 142.511719 34.863281 123.550781 Z M 129.042969 36.46875 C 166.578125 21.367188 208.367188 20.972656 246.65625 33.253906 C 263.601562 38.6875 279.453125 47.40625 293.675781 58.105469 C 292.535156 59.890625 290.75 61.234375 289.492188 62.996094 C 288.902344 63.824219 288.136719 64.53125 287.394531 65.238281 C 261.132812 47.921875 231.476562 38.484375 199.949219 36.214844 C 184.277344 35.078125 166.347656 37.691406 151.300781 42.007812 C 143.144531 44.335938 134.703125 45.824219 126.429688 47.695312 C 118.09375 49.578125 112.988281 53.101562 106.980469 57.707031 C 106.679688 56.941406 106.476562 56.113281 106.019531 55.308594 C 105.167969 53.832031 103.910156 52.238281 103.910156 50.703125 C 103.910156 51.472656 103.910156 52.214844 103.910156 52.984375 C 103.910156 52.839844 103.261719 52.707031 103.261719 52.585938 C 103.429688 51.472656 103.179688 50.367188 102.664062 49.457031 C 111.390625 44.371094 120.253906 39.992188 129.042969 36.46875 Z M 71.21875 219.054688 C 81.425781 219.054688 96.355469 214.316406 105.851562 218.550781 C 106.582031 218.863281 107.304688 218.800781 107.972656 218.777344 C 109.546875 219.089844 111.308594 218.550781 112.386719 216.785156 C 121.367188 202.597656 130.160156 188.351562 139.597656 174.425781 C 149.550781 159.699219 156.648438 142.980469 166.289062 127.988281 C 171.519531 119.832031 156.023438 98.078125 152.894531 91.230469 C 147.320312 78.949219 142.714844 65.382812 134.8125 54.289062 C 140.449219 52.957031 146.214844 51.820312 151.792969 50.570312 C 167.621094 47.070312 183.59375 44.429688 199.949219 44.730469 C 219.59375 45.078125 239.402344 50.34375 257.628906 58.558594 C 250.972656 69.199219 244.175781 79.535156 238.777344 90.976562 C 233.71875 101.664062 223.679688 109.960938 222.433594 122.160156 C 222.410156 122.328125 222.433594 122.496094 222.433594 122.640625 C 222.144531 123.359375 222.0625 124.175781 222.242188 125.085938 C 225.648438 142.714844 234.03125 160.597656 243.070312 175.960938 C 251.40625 190.089844 257.628906 204.925781 267.75 217.949219 C 268.171875 218.488281 268.636719 218.863281 269.117188 219.089844 C 269.453125 219.378906 269.847656 219.59375 270.339844 219.738281 C 281.359375 223.441406 295.042969 221.273438 306.640625 222.722656 C 321.078125 224.523438 335.40625 226.1875 349.878906 227.28125 C 349.199219 232.160156 348.285156 236.996094 346.691406 241.914062 C 341.773438 257.417969 335.609375 272.820312 327.839844 287.042969 C 321.628906 298.496094 310.308594 309.277344 301.496094 318.886719 C 296.636719 324.199219 290.234375 330.207031 283.160156 335.183594 C 277.558594 322.925781 269.765625 311.378906 263.0625 299.839844 C 256.65625 288.867188 250.386719 277.664062 242.507812 267.710938 C 241.199219 266.054688 239.5 265.945312 238.09375 266.65625 C 237.757812 266.570312 237.386719 266.488281 236.992188 266.449219 C 205.945312 264.554688 177.65625 261.484375 143.542969 261.484375 C 142.835938 261.484375 142.292969 262.050781 141.921875 262.875 C 131.71875 267.339844 124.644531 279.019531 119.4375 288.457031 C 115.710938 295.199219 111.1875 301.195312 107.160156 307.660156 C 103.117188 314.171875 99.136719 321.871094 93.992188 327.640625 C 87.648438 323.179688 82.046875 317.949219 78.644531 313.308594 C 68.628906 299.613281 58.234375 286.648438 52.058594 270.578125 C 45.894531 254.457031 41.191406 236.121094 38.554688 219.054688 C 47.035156 219.054688 62.527344 219.054688 71.21875 219.054688 Z M 50.332031 172.628906 C 53.59375 157.300781 60.582031 142.175781 67.382812 128.253906 C 75.34375 111.929688 87.601562 97.117188 104.773438 89.945312 C 109.339844 95.066406 113.441406 100.632812 117.472656 106.183594 C 121.019531 111.066406 122.507812 117.242188 126.035156 122.074219 C 124.75 124.546875 124.101562 127.425781 122.929688 129.957031 C 118.898438 138.878906 113.585938 146.699219 108.238281 154.828125 C 100.238281 167.027344 94.484375 175.132812 78.535156 175.132812 C 75.859375 175.132812 51.636719 176.046875 50.644531 173.285156 C 50.546875 173.023438 50.4375 172.832031 50.332031 172.628906 Z M 51.769531 182.269531 C 54.3125 182.664062 57.035156 182.726562 59.683594 182.953125 C 69.792969 183.769531 87.335938 187.296875 96.835938 182.460938 C 107.925781 176.8125 112.902344 162 120.253906 152.550781 C 123.898438 147.898438 126.34375 142.464844 128.730469 137.117188 C 129.980469 134.355469 131.96875 127.339844 134.140625 125.171875 C 135.136719 124.152344 135.472656 122.988281 135.328125 121.90625 C 135.53125 120.746094 135.207031 119.519531 134.140625 118.441406 C 131.296875 115.707031 130.121094 111.726562 128.394531 108.285156 C 126.511719 104.53125 124.164062 101.207031 121.992188 97.621094 C 119.628906 93.722656 116.476562 90.03125 113.296875 86.539062 C 114.007812 85.363281 114.234375 83.890625 113.464844 82.328125 C 112.050781 79.453125 110.972656 76.585938 110.480469 73.371094 C 110.167969 71.210938 109.339844 69.078125 108.800781 66.964844 C 114.523438 62.589844 119.257812 59.183594 125.996094 56.761719 C 134.558594 67.109375 138.109375 81.15625 144.175781 92.871094 C 147.953125 100.1875 150.53125 108.308594 154.695312 115.417969 C 159.800781 124.175781 155.546875 130.039062 150.390625 137.824219 C 142.953125 149.0625 137.832031 161.796875 130.265625 172.976562 C 122.160156 184.945312 114.628906 197.140625 106.957031 209.363281 C 98.226562 206.664062 88.019531 207.71875 79.121094 208.511719 C 65.511719 209.757812 52.371094 208.761719 37.332031 208.570312 C 36.589844 201.460938 36.230469 194.300781 36.230469 187.210938 C 36.230469 186.933594 36.191406 186.707031 36.144531 186.480469 C 37.789062 186.214844 39.441406 186.046875 40.917969 185.628906 C 43.640625 184.882812 46.660156 183.914062 49.445312 183.492188 C 50.523438 183.347656 51.289062 182.894531 51.769531 182.269531 Z M 337.851562 181.273438 C 325.371094 182.292969 291.828125 183.601562 286.769531 169.015625 C 284.574219 162.625 280.675781 156.699219 277.558594 150.761719 C 273.746094 143.519531 270.761719 135.207031 266.132812 128.46875 C 268.601562 116.355469 280.628906 98.699219 291.027344 93.496094 C 294.984375 91.539062 310.957031 114.375 314.996094 118.945312 C 329.265625 135.101562 337.167969 159.328125 337.851562 181.273438 Z M 296.601562 67.664062 C 297.859375 66.152344 299.3125 64.929688 300.441406 63.394531 C 316.449219 76.644531 327.359375 94.238281 341.210938 109.445312 C 345.300781 113.921875 349.339844 117.890625 352.640625 123.070312 C 356.847656 129.726562 357.472656 140.535156 359.34375 148.125 C 362.925781 162.625 365.972656 176.921875 366.765625 191.769531 C 365.144531 191.648438 363.503906 191.480469 361.847656 191.480469 C 360.9375 191.480469 360.027344 191.480469 359.125 191.480469 C 358.777344 191.277344 358.609375 191.277344 358.550781 191.480469 C 357.949219 191.421875 357.84375 191.359375 358.214844 191.335938 C 357.699219 191 357.125 190.796875 356.558594 190.738281 C 356.5 190.714844 356.476562 190.652344 356.417969 190.628906 C 353.921875 188.949219 350.132812 188.0625 346.101562 187.523438 C 346.894531 186.277344 347.015625 184.632812 346.4375 183.289062 C 346.355469 169.414062 344.570312 155.261719 338.765625 143.652344 C 335.214844 136.574219 332.421875 128.898438 328.105469 122.242188 C 322.613281 113.835938 315.164062 107.203125 309.253906 99.097656 C 300.007812 86.359375 294.238281 80.652344 280.257812 90.03125 C 275.078125 93.496094 270.21875 101.542969 267.066406 106.519531 C 262.292969 114.113281 258.398438 121.390625 257.257812 130.351562 C 257.007812 132.449219 258.109375 133.734375 259.621094 134.1875 C 264.394531 141.636719 267.628906 150.65625 271.730469 158.4375 C 275.796875 166.175781 278.074219 176.214844 283.84375 182.832031 C 284.40625 183.515625 285.03125 184.058594 285.691406 184.574219 C 285.832031 185.28125 286.230469 186.023438 286.9375 186.671875 C 288.867188 188.433594 290.605469 192.082031 293.449219 192.726562 C 299.730469 194.214844 306.265625 193.617188 312.695312 193.617188 C 321.171875 193.617188 329.183594 195.089844 337.566406 195.75 C 340.671875 195.976562 349.078125 196.3125 351.847656 197.875 C 352.015625 198.414062 352.265625 198.953125 352.664062 199.46875 C 354.28125 201.484375 351.75 212.207031 351.476562 214.566406 C 351.308594 216.019531 351.128906 217.410156 350.960938 218.824219 C 337.792969 217.890625 324.769531 216.042969 311.617188 214.820312 C 305.75 214.28125 297.632812 214.21875 291.792969 213.117188 C 285.859375 212 279.515625 213.34375 273.6875 211.808594 C 264.226562 199.589844 257.484375 185.339844 250.433594 171.65625 C 242.507812 156.28125 234.054688 140.640625 230.625 123.492188 C 230.757812 123.070312 230.898438 122.640625 230.960938 122.160156 C 231.582031 116.101562 236.5 110.394531 239.941406 105.644531 C 243.945312 100.066406 246.742188 93.988281 249.726562 87.8125 C 254.042969 78.851562 260.050781 70.671875 265.363281 62.289062 C 272.476562 65.898438 279.285156 69.929688 285.652344 74.304688 C 286.890625 75.15625 288.074219 75.21875 289.09375 74.820312 C 290.402344 74.679688 291.660156 73.996094 292.203125 72.769531 C 293.101562 70.816406 295.234375 69.304688 296.601562 67.664062 Z M 375.519531 198.59375 C 375.410156 180.507812 371.886719 163.332031 367.570312 145.871094 C 363.132812 127.84375 360.144531 116.929688 347.242188 103.390625 C 334.101562 89.632812 323.835938 73.648438 309.9375 60.429688 C 296.328125 47.527344 279.65625 37.773438 262.570312 30.265625 C 196.554688 1.148438 118.816406 18.273438 66.160156 65.753906 C 53.054688 77.582031 42.390625 92.1875 33.328125 107.265625 C 28.949219 114.507812 25.988281 122.472656 23.660156 130.601562 C 20.710938 140.929688 15.242188 150.199219 12.484375 160.597656 C 8.167969 177.125 6.203125 198.53125 9.535156 215.277344 C 13.167969 233.695312 14.703125 251.722656 22.4375 268.957031 C 37.414062 302.285156 57.40625 330.519531 88.765625 350.042969 C 118.273438 368.441406 155.761719 383.3125 190.847656 382.292969 C 203.105469 381.921875 215.359375 378.9375 227.328125 376.550781 C 239.5 374.101562 251.683594 372.652344 263.625 369.210938 C 285.378906 362.960938 305.25 350.789062 321.171875 334.8125 C 339.722656 316.1875 351.246094 290.339844 362.363281 266.964844 C 367.195312 256.820312 372.675781 247.382812 374.957031 236.261719 C 377.425781 224.007812 375.578125 210.957031 375.519531 198.59375 "/>
<path style=" stroke:none;fill-rule:nonzero;fill:rgb(0%,0%,0%);fill-opacity:1;" d="M 283.074219 299.15625 C 281.167969 300.488281 280.28125 302.851562 281.539062 304.984375 C 282.621094 306.855469 285.460938 307.851562 287.367188 306.519531 C 289.382812 305.09375 292.992188 305.667969 295.632812 305.667969 C 301.121094 305.730469 301.121094 297.1875 295.632812 297.128906 C 291.519531 297.105469 286.625 296.625 283.074219 299.15625 "/>
<path style=" stroke:none;fill-rule:nonzero;fill:rgb(0%,0%,0%);fill-opacity:1;" d="M 294.46875 308.140625 C 290.5 306.351562 285.148438 306.269531 281.734375 309.300781 C 279.96875 310.835938 280.148438 313.777344 281.734375 315.335938 C 283.304688 316.917969 285.605469 316.871094 287.332031 315.648438 C 287.332031 315.648438 287.367188 315.648438 287.394531 315.625 C 287.429688 315.625 287.429688 315.625 287.476562 315.585938 C 287.558594 315.5625 287.679688 315.527344 287.789062 315.527344 C 287.847656 315.527344 288.449219 315.441406 288.554688 315.441406 C 289.011719 315.417969 289.441406 315.480469 289.863281 315.503906 C 289.191406 315.503906 291.492188 316.101562 290.1875 315.527344 C 292.285156 316.476562 294.730469 316.152344 296.003906 313.992188 C 297.09375 312.144531 296.578125 309.097656 294.46875 308.140625 "/>
<path style=" stroke:none;fill-rule:nonzero;fill:rgb(0%,0%,0%);fill-opacity:1;" d="M 262.664062 246.722656 C 264.105469 244.585938 265.59375 242.261719 267.175781 239.957031 C 268.0625 243.003906 269.082031 245.988281 269.765625 249.058594 C 270.363281 251.675781 270.027344 253.796875 272.476562 255.5625 C 274.511719 257.046875 276.792969 257.445312 279.238281 257.613281 C 284.921875 258.007812 289.921875 256.675781 291.890625 250.957031 C 293.699219 245.726562 291.375 239.585938 287.308594 236.097656 C 283.125 232.570312 277.078125 238.566406 281.253906 242.152344 C 282.332031 243.050781 285.714844 247.429688 283.589844 248.941406 C 282.824219 249.480469 280.148438 249.058594 279.238281 249.085938 C 278.578125 249.085938 278.292969 249.167969 278.183594 249.226562 C 278.265625 249.109375 278.410156 248.855469 278.292969 248.292969 C 277.308594 243.171875 275.820312 237.738281 273.804688 232.84375 C 273.949219 232.054688 274.011719 231.285156 273.890625 230.316406 C 273.496094 226.703125 269.511719 224.570312 266.609375 227.304688 C 262.175781 231.453125 258.734375 237.425781 255.292969 242.402344 C 252.171875 246.949219 259.558594 251.21875 262.664062 246.722656 "/>
<path style=" stroke:none;fill-rule:nonzero;fill:rgb(0%,0%,0%);fill-opacity:1;" d="M 288.964844 295.570312 C 290.859375 295.089844 292.308594 293.617188 292.308594 291.445312 C 292.308594 289.285156 290.378906 286.984375 288.050781 287.1875 C 286.050781 287.355469 284.574219 287.980469 283.160156 289.40625 C 281.480469 291.023438 281.503906 293.785156 283.160156 295.425781 C 284.71875 297.023438 287.285156 297.023438 288.964844 295.570312 "/>
<path style=" stroke:none;fill-rule:nonzero;fill:rgb(0%,0%,0%);fill-opacity:1;" d="M 255.351562 269.699219 C 258.734375 270.265625 262.628906 268.898438 264.789062 266.140625 C 265.675781 266.65625 266.609375 267.132812 267.5 267.710938 C 267.605469 267.757812 269.597656 268.957031 270.988281 269.558594 C 270.761719 269.988281 270.53125 270.410156 270.246094 270.839844 C 267.175781 275.410156 274.574219 279.679688 277.609375 275.121094 C 279.429688 272.421875 281.875 268.8125 279.945312 265.550781 C 279.011719 263.894531 276.984375 262.902344 275.304688 262.253906 C 273.207031 261.425781 271.417969 260.058594 269.453125 258.917969 C 265.902344 256.84375 262.832031 255.765625 259.5 258.894531 C 259.082031 259.398438 258.683594 259.914062 258.335938 260.488281 C 257.460938 261.796875 257.03125 260.851562 256.71875 261.675781 C 257.402344 259.519531 259.285156 257.300781 260.449219 255.5625 C 263.566406 251.015625 256.179688 246.757812 253.085938 251.242188 C 250.914062 254.433594 247.941406 258.582031 247.941406 262.648438 C 247.941406 266.796875 251.71875 269.078125 255.351562 269.699219 "/>
<path style=" stroke:none;fill-rule:nonzero;fill:rgb(0%,0%,0%);fill-opacity:1;" d="M 234.820312 65.238281 C 233.203125 66.917969 233.15625 69.617188 234.820312 71.273438 C 236.417969 72.878906 239.234375 72.9375 240.851562 71.273438 C 241.824219 70.242188 242.675781 69.101562 243.503906 67.9375 C 244.269531 66.859375 244.355469 66.570312 245.578125 65.574219 C 247.402344 64.125 247.078125 61.054688 245.578125 59.554688 C 243.816406 57.792969 241.367188 58.105469 239.546875 59.554688 C 238.503906 60.40625 237.699219 61.484375 236.894531 62.566406 C 235.960938 63.789062 235.734375 64.269531 234.820312 65.238281 "/>
<path style=" stroke:none;fill-rule:nonzero;fill:rgb(0%,0%,0%);fill-opacity:1;" d="M 227.148438 67.195312 C 229.054688 68.332031 231.929688 67.734375 232.988281 65.660156 C 233.238281 65.179688 233.464844 64.722656 233.753906 64.242188 C 233.863281 64.078125 233.921875 63.992188 233.96875 63.933594 C 234.546875 63.25 234.941406 62.710938 235.3125 61.820312 C 235.230469 62.109375 235.191406 62.167969 235.3125 62.023438 C 235.3125 62 235.3125 62 235.335938 61.964844 C 235.335938 61.964844 235.335938 61.964844 235.359375 61.941406 C 235.503906 61.796875 235.734375 61.484375 235.769531 61.425781 C 236.308594 60.824219 236.847656 60.203125 237.242188 59.519531 C 240.039062 54.746094 232.664062 50.453125 229.882812 55.203125 C 229.855469 55.261719 229.855469 55.285156 229.820312 55.308594 C 229.796875 55.34375 229.796875 55.367188 229.738281 55.40625 C 229.484375 55.679688 229.222656 55.96875 228.96875 56.28125 C 228.429688 56.941406 228.035156 57.585938 227.6875 58.273438 C 226.871094 59.242188 226.1875 60.238281 225.613281 61.367188 C 224.570312 63.453125 225.046875 65.972656 227.148438 67.195312 "/>
<path style=" stroke:none;fill-rule:nonzero;fill:rgb(0%,0%,0%);fill-opacity:1;" d="M 170.269531 163.1875 C 189.289062 152.273438 213.90625 156.699219 226.558594 174.761719 C 238.921875 192.453125 236.476562 224.089844 216.378906 235.0625 C 199.601562 244.875 170.953125 249.457031 158.949219 229.835938 C 152.582031 219.425781 151.445312 208.632812 151.023438 196.792969 C 150.484375 180.960938 156.792969 170.886719 170.269531 163.1875 Z M 181.125 251.21875 C 195.40625 253.859375 208.621094 249.480469 220.671875 242.429688 C 244.917969 229.1875 246.632812 196.878906 236.019531 174.136719 C 224.449219 149.289062 192.945312 143.230469 169.753906 154.0625 C 140.785156 167.566406 134.441406 202.480469 149.285156 229.859375 C 157.441406 244.933594 164.839844 248.234375 181.125 251.21875 "/>
<path style=" stroke:none;fill-rule:nonzero;fill:rgb(0%,0%,0%);fill-opacity:1;" d="M 169.71875 191.539062 C 172.824219 175.050781 190.597656 172.855469 203.210938 179.164062 C 214.988281 185.050781 217.167969 196.542969 214.039062 208.824219 C 209.613281 221.703125 204.386719 225.9375 190.285156 225.9375 C 172.226562 225.9375 166.9375 206.375 169.71875 191.539062 Z M 181.867188 233.648438 C 190.105469 235.375 202.191406 235.519531 209.664062 231.058594 C 217.207031 226.511719 219.53125 219.027344 222.289062 211.101562 C 222.410156 210.730469 222.457031 210.359375 222.519531 210.023438 C 224.171875 202.597656 223.621094 194.804688 222.542969 187.332031 C 221.152344 177.519531 211.714844 173.886719 203.992188 170.011719 C 187.777344 161.941406 167.742188 169.304688 162.164062 187.128906 C 157.105469 203.332031 162.453125 229.605469 181.867188 233.648438 "/>
<path style=" stroke:none;fill-rule:nonzero;fill:rgb(0%,0%,0%);fill-opacity:1;" d="M 215.777344 63.894531 C 217.9375 65.15625 220.238281 64.21875 221.605469 62.359375 C 222.121094 61.691406 222.410156 60.347656 222.542969 59.988281 C 223.488281 57.851562 223.226562 55.429688 221.042969 54.144531 C 219.21875 53.101562 216.125 53.546875 215.179688 55.679688 C 214.925781 56.339844 214.640625 56.964844 214.410156 57.648438 C 214.363281 57.792969 214.328125 57.898438 214.328125 57.960938 C 214.304688 57.984375 214.269531 58.019531 214.242188 58.042969 C 212.875 59.925781 213.933594 62.792969 215.777344 63.894531 "/>
<path style=" stroke:none;fill-rule:nonzero;fill:rgb(0%,0%,0%);fill-opacity:1;" d="M 201.820312 103.34375 C 209.136719 103.304688 220.984375 101.578125 216.152344 91.253906 C 214.507812 87.726562 211.460938 85.855469 207.769531 85.316406 C 207.683594 84.03125 207.539062 82.75 207.503906 81.476562 C 207.480469 80.363281 207.253906 79.257812 207.085938 78.179688 C 207.457031 78.144531 207.828125 78.085938 208.222656 78.085938 C 213.703125 78.035156 213.703125 69.496094 208.222656 69.558594 C 204.949219 69.59375 200.742188 69.53125 198.835938 72.746094 C 197.816406 74.472656 198.269531 76.644531 198.5 78.515625 C 198.859375 81.214844 199.039062 83.925781 199.3125 86.625 C 199.746094 90.28125 201.171875 93.820312 205.550781 93.785156 C 206.089844 93.785156 206.628906 93.785156 207.132812 93.722656 C 207.480469 93.953125 207.828125 94.179688 208.128906 94.40625 C 206.089844 94.839844 203.894531 94.777344 201.820312 94.816406 C 196.339844 94.816406 196.304688 103.34375 201.820312 103.34375 "/>
<path style=" stroke:none;fill-rule:nonzero;fill:rgb(0%,0%,0%);fill-opacity:1;" d="M 193.175781 187.726562 C 200.285156 188.84375 205.574219 191.503906 205.800781 199.359375 C 205.488281 204.839844 203.042969 209.363281 197.816406 211.558594 C 192.238281 213.882812 183.882812 210.671875 181.972656 204.589844 C 179.9375 198.078125 185.164062 186.480469 193.175781 187.726562 Z M 194.949219 220.9375 C 206.066406 219.316406 212.972656 211.523438 214.160156 200.714844 C 214.269531 200.320312 214.363281 199.863281 214.328125 199.359375 C 214.363281 198.929688 214.328125 198.558594 214.242188 198.222656 C 213.390625 186.359375 205.320312 181.023438 193.941406 179.285156 C 181.386719 177.316406 172.910156 191 173.027344 202.144531 C 173.160156 212.636719 184.539062 222.496094 194.949219 220.9375 "/>
<path style=" stroke:none;fill-rule:nonzero;fill:rgb(0%,0%,0%);fill-opacity:1;" d="M 178.710938 84.488281 C 178.964844 81.789062 181.867188 77.808594 184.277344 81.25 C 184.902344 82.019531 185.453125 82.832031 185.933594 83.722656 C 186.136719 83.578125 186.328125 83.433594 186.53125 83.289062 C 185.789062 83.804688 185.164062 84.367188 184.601562 85.050781 C 181.183594 88.46875 177.742188 92.644531 175.101562 96.792969 C 174.214844 97.25 173.425781 97.765625 172.511719 98.53125 C 170.019531 100.691406 170.859375 104.839844 173.761719 105.667969 C 179.503906 107.265625 186.363281 106.519531 192.046875 106.519531 C 197.730469 106.519531 197.730469 97.992188 192.046875 97.992188 C 189.207031 97.992188 187.40625 98.054688 184.996094 97.933594 C 186.84375 95.628906 188.628906 93.28125 190.644531 91.085938 C 192.359375 89.214844 194.660156 88.121094 194.710938 85.195312 C 194.804688 82.019531 193.460938 79.488281 191.640625 76.921875 C 188.34375 72.269531 184.769531 69.761719 179.023438 71.859375 C 173.710938 73.765625 170.691406 79.140625 170.210938 84.488281 C 169.695312 89.980469 178.222656 89.921875 178.710938 84.488281 "/>
<path style=" stroke:none;fill-rule:nonzero;fill:rgb(0%,0%,0%);fill-opacity:1;" d="M 125.289062 238.984375 C 126.800781 241.265625 128.648438 243.6875 130.328125 246.183594 C 127.363281 245.929688 124.390625 245.808594 121.488281 245.355469 C 119.089844 244.996094 116.597656 243.507812 114.234375 245.019531 C 111.8125 246.554688 110.253906 248.652344 109.234375 251.328125 C 107.207031 256.675781 106.105469 261.570312 111.308594 265.371094 C 115.914062 268.730469 121.96875 268.730469 126.859375 266.054688 C 131.695312 263.417969 127.402344 256.050781 122.554688 258.691406 C 121.203125 259.433594 115.167969 260.429688 116.164062 257.046875 C 116.476562 255.847656 118.492188 253.628906 116.703125 252.863281 C 118.046875 253.4375 119.355469 253.605469 120.769531 253.832031 C 126.34375 254.683594 131.863281 254.660156 137.148438 256.101562 C 140.015625 256.867188 143.625 253.976562 142.378906 250.847656 C 140.136719 245.125 136.070312 239.753906 132.652344 234.667969 C 129.582031 230.148438 122.195312 234.417969 125.289062 238.984375 "/>
<path style=" stroke:none;fill-rule:nonzero;fill:rgb(0%,0%,0%);fill-opacity:1;" d="M 101.101562 248.6875 C 104.773438 248.6875 108.347656 243.878906 110.996094 241.863281 C 113.886719 239.644531 117.050781 237.308594 115.914062 233.191406 C 115.601562 231.96875 114.523438 229.523438 113.609375 228.359375 C 115.3125 229.835938 116.597656 231.824219 117.878906 233.695312 C 120.949219 238.21875 128.335938 233.960938 125.230469 229.378906 C 121.429688 223.753906 113.777344 214.257812 107.578125 223.238281 C 105.191406 226.679688 105 230.625 106.789062 234.332031 C 105.875 235.039062 104.964844 235.808594 104.003906 236.457031 C 103.035156 237.140625 102.207031 238.027344 101.332031 238.84375 C 101.042969 238.507812 100.753906 238.21875 100.730469 238.132812 C 97.625 233.648438 90.238281 237.90625 93.367188 242.464844 C 95.214844 245.164062 97.398438 248.6875 101.101562 248.6875 "/>
<path style=" stroke:none;fill-rule:nonzero;fill:rgb(0%,0%,0%);fill-opacity:1;" d="M 54.253906 229.75 C 55.164062 229.234375 56.148438 229.402344 57.238281 229.378906 C 57.886719 229.355469 58.519531 229.296875 59.144531 229.273438 C 59.253906 229.273438 59.335938 229.234375 59.398438 229.234375 C 59.398438 229.234375 59.398438 229.273438 59.421875 229.273438 C 61.277344 230.6875 64.191406 229.546875 65.25 227.738281 C 66.53125 225.542969 65.558594 223.324219 63.714844 221.90625 C 61.890625 220.503906 59.398438 220.707031 57.238281 220.851562 C 54.648438 220.996094 52.285156 221.054688 49.960938 222.386719 C 45.175781 225.121094 49.46875 232.507812 54.253906 229.75 "/>
<path style=" stroke:none;fill-rule:nonzero;fill:rgb(0%,0%,0%);fill-opacity:1;" d="M 60.621094 240.269531 C 66.136719 240.292969 66.136719 231.765625 60.621094 231.742188 C 60.332031 231.742188 60.054688 231.742188 59.769531 231.742188 C 59.648438 231.742188 59.085938 231.683594 58.855469 231.683594 C 58.714844 231.65625 58.570312 231.621094 58.425781 231.597656 C 58.425781 231.574219 58.425781 231.574219 58.425781 231.574219 C 56.984375 229.75 53.917969 230.085938 52.40625 231.574219 C 50.605469 233.359375 50.953125 235.773438 52.40625 237.59375 C 54.277344 240.015625 57.835938 240.269531 60.621094 240.269531 "/>
</g>
</svg>
