<?xml version="1.0" encoding="UTF-8"?>
<svg xmlns="http://www.w3.org/2000/svg" xmlns:xlink="http://www.w3.org/1999/xlink" width="450pt" height="112.499997pt" viewBox="0 0 450 112.499997" version="1.2">
<g id="surface1">
<path style=" stroke:none;fill-rule:evenodd;fill:rgb(0%,0%,0%);fill-opacity:1;" d="M 444.414062 57.09375 L 440.6875 56.6875 C 440.96875 54.984375 441.207031 53.238281 441.398438 51.464844 C 441.589844 49.683594 441.726562 47.929688 441.820312 46.203125 L 445.542969 46.609375 L 445.542969 46.613281 L 445.546875 46.613281 C 445.613281 46.621094 445.679688 46.632812 445.746094 46.648438 L 446.074219 46.683594 C 446.144531 46.683594 446.210938 46.683594 446.277344 46.691406 C 447.71875 46.847656 448.628906 49.320312 448.316406 52.214844 C 448.007812 55.105469 446.585938 57.324219 445.152344 57.167969 L 444.417969 57.089844 L 444.414062 57.09375 "/>
<path style=" stroke:none;fill-rule:evenodd;fill:rgb(0%,0%,0%);fill-opacity:1;" d="M 422.695312 9.226562 Z M 425.308594 9.507812 L 427.441406 9.738281 C 427.882812 9.707031 428.320312 9.714844 428.761719 9.765625 C 438.109375 10.78125 443.765625 29.449219 441.398438 51.464844 C 439.027344 73.476562 429.527344 90.5 420.175781 89.484375 L 415.433594 88.96875 C 424.785156 89.980469 434.285156 72.957031 436.65625 50.949219 C 438.910156 29.964844 433.878906 12.023438 425.308594 9.507812 Z M 415.429688 88.96875 L 414.125 88.828125 L 414.136719 88.710938 C 414.558594 88.835938 414.988281 88.921875 415.429688 88.96875 "/>
<path style=" stroke:none;fill-rule:evenodd;fill:rgb(0%,0%,0%);fill-opacity:1;" d="M 414.257812 8.308594 Z M 416.871094 8.589844 L 419.003906 8.824219 C 419.441406 8.792969 419.882812 8.800781 420.324219 8.847656 C 429.671875 9.863281 435.328125 28.53125 432.957031 50.546875 C 430.585938 72.558594 421.085938 89.582031 411.734375 88.566406 L 406.996094 88.050781 C 406.550781 88.003906 406.121094 87.917969 405.699219 87.792969 L 405.6875 87.910156 L 406.996094 88.050781 C 416.34375 89.066406 425.84375 72.046875 428.21875 50.03125 C 430.472656 29.050781 425.441406 11.109375 416.871094 8.589844 "/>
<path style=" stroke:none;fill-rule:evenodd;fill:rgb(0%,0%,0%);fill-opacity:1;" d="M 405.816406 7.390625 Z M 408.433594 7.671875 L 410.566406 7.90625 C 411.003906 7.875 411.441406 7.882812 411.882812 7.929688 C 421.230469 8.945312 426.890625 27.617188 424.519531 49.632812 C 422.148438 71.644531 412.644531 88.664062 403.296875 87.652344 L 398.554688 87.136719 C 407.90625 88.152344 417.40625 71.128906 419.777344 49.113281 C 422.035156 28.136719 417.003906 10.195312 408.433594 7.671875 Z M 398.550781 87.136719 L 397.246094 86.996094 L 397.261719 86.878906 C 397.679688 87 398.109375 87.089844 398.550781 87.136719 "/>
<path style=" stroke:none;fill-rule:evenodd;fill:rgb(0%,0%,0%);fill-opacity:1;" d="M 397.378906 6.472656 Z M 399.992188 6.757812 L 402.125 6.992188 C 402.5625 6.960938 403.003906 6.96875 403.441406 7.015625 C 412.792969 8.03125 418.449219 26.699219 416.078125 48.714844 C 413.707031 70.726562 404.207031 87.75 394.855469 86.734375 L 390.113281 86.222656 C 389.675781 86.171875 389.242188 86.085938 388.820312 85.960938 L 388.808594 86.078125 L 390.113281 86.222656 C 399.464844 87.238281 408.964844 70.214844 411.335938 48.199219 C 413.59375 27.21875 408.5625 9.277344 399.992188 6.757812 "/>
<path style=" stroke:none;fill-rule:evenodd;fill:rgb(0%,0%,0%);fill-opacity:1;" d="M 388.941406 5.558594 Z M 391.550781 5.84375 L 393.683594 6.074219 C 394.121094 6.042969 394.5625 6.050781 395 6.097656 C 404.355469 7.113281 410.011719 25.785156 407.640625 47.796875 C 405.269531 69.8125 395.765625 86.835938 386.417969 85.820312 L 381.675781 85.304688 C 381.234375 85.253906 380.804688 85.167969 380.378906 85.046875 L 380.367188 85.160156 L 381.675781 85.304688 C 391.023438 86.316406 400.527344 69.296875 402.898438 47.28125 C 405.15625 26.300781 400.125 8.359375 391.550781 5.84375 "/>
<path style=" stroke:none;fill-rule:evenodd;fill:rgb(0%,0%,0%);fill-opacity:1;" d="M 383.113281 4.925781 L 385.246094 5.15625 C 385.683594 5.125 386.125 5.136719 386.5625 5.183594 C 395.914062 6.199219 401.570312 24.867188 399.199219 46.882812 C 396.828125 68.894531 387.328125 85.917969 377.976562 84.902344 L 373.238281 84.386719 C 382.585938 85.398438 392.085938 68.375 394.457031 46.367188 C 396.714844 25.386719 391.683594 7.445312 383.113281 4.925781 Z M 373.230469 84.386719 L 371.929688 84.246094 L 371.941406 84.128906 C 372.363281 84.253906 372.792969 84.339844 373.230469 84.386719 "/>
<path style=" stroke:none;fill-rule:evenodd;fill:rgb(0%,0%,0%);fill-opacity:1;" d="M 374.671875 4.007812 L 376.804688 4.242188 C 377.242188 4.210938 377.683594 4.21875 378.125 4.265625 C 387.472656 5.28125 393.132812 23.949219 390.761719 45.964844 C 388.390625 67.976562 378.886719 85 369.539062 83.984375 L 364.792969 83.46875 C 364.355469 83.425781 363.921875 83.335938 363.5 83.214844 L 363.488281 83.328125 L 364.792969 83.46875 C 374.144531 84.488281 383.648438 67.464844 386.019531 45.449219 C 388.277344 24.46875 383.242188 6.527344 374.671875 4.007812 "/>
<path style=" stroke:none;fill-rule:evenodd;fill:rgb(0%,0%,0%);fill-opacity:1;" d="M 366.234375 3.09375 L 368.367188 3.324219 C 368.804688 3.292969 369.242188 3.300781 369.683594 3.347656 C 379.035156 4.363281 384.691406 23.035156 382.324219 45.050781 C 379.953125 67.0625 370.449219 84.085938 361.097656 83.070312 L 356.355469 82.554688 C 355.914062 82.507812 355.484375 82.421875 355.0625 82.296875 L 355.046875 82.414062 L 356.355469 82.554688 C 365.707031 83.570312 375.207031 66.546875 377.578125 44.53125 C 379.835938 23.554688 374.804688 5.613281 366.234375 3.09375 "/>
<path style=" stroke:none;fill-rule:evenodd;fill:rgb(0%,0%,0%);fill-opacity:1;" d="M 357.792969 2.175781 L 359.925781 2.410156 C 360.363281 2.378906 360.804688 2.386719 361.246094 2.433594 C 370.59375 3.449219 376.25 22.117188 373.882812 44.132812 C 371.511719 66.148438 362.011719 83.167969 352.65625 82.152344 L 347.914062 81.640625 C 347.476562 81.589844 347.042969 81.503906 346.621094 81.382812 L 346.609375 81.496094 L 347.914062 81.640625 C 357.265625 82.652344 366.769531 65.628906 369.136719 43.617188 C 371.398438 22.636719 366.363281 4.695312 357.792969 2.175781 "/>
<path style=" stroke:none;fill-rule:evenodd;fill:rgb(0%,0%,0%);fill-opacity:1;" d="M 351.484375 1.492188 C 351.925781 1.460938 352.363281 1.46875 352.804688 1.515625 C 362.15625 2.53125 367.8125 21.203125 365.441406 43.214844 C 363.070312 65.230469 353.570312 82.25 344.21875 81.238281 L 339.476562 80.722656 C 339.332031 80.707031 339.1875 80.6875 339.046875 80.664062 C 339.1875 80.6875 339.332031 80.707031 339.476562 80.722656 L 338.167969 80.582031 L 338.183594 80.464844 C 329.613281 77.945312 324.578125 60.003906 326.835938 39.023438 C 329.207031 17.007812 338.710938 -0.0117188 348.058594 1.003906 C 349.730469 1.183594 349.492188 1.277344 351.484375 1.492188 Z M 339.5625 77.179688 C 339.730469 77.21875 339.898438 77.25 340.070312 77.273438 C 340.140625 77.285156 340.214844 77.296875 340.285156 77.300781 C 340.449219 77.320312 340.617188 77.332031 340.78125 77.335938 C 340.714844 77.320312 340.652344 77.304688 340.585938 77.289062 C 340.414062 77.25 340.25 77.207031 340.082031 77.152344 C 333.882812 75.140625 329.972656 62.863281 330.285156 47.359375 C 330.714844 47.878906 331.21875 48.234375 331.769531 48.378906 L 331.765625 48.40625 L 332.109375 48.441406 L 333.34375 48.578125 C 334.78125 48.734375 336.203125 47.496094 337.238281 45.457031 L 340.941406 45.859375 C 341.246094 46.464844 341.640625 46.835938 342.101562 46.886719 C 342.5625 46.933594 343.023438 46.65625 343.449219 46.128906 L 343.464844 46.109375 L 343.488281 46.082031 L 343.492188 46.082031 L 343.511719 46.046875 L 343.523438 46.035156 L 343.539062 46.015625 L 343.5625 45.984375 L 343.5625 45.980469 L 343.589844 45.949219 L 343.609375 45.917969 L 343.613281 45.914062 L 343.660156 45.84375 L 343.671875 45.824219 L 343.683594 45.808594 L 343.707031 45.773438 L 343.710938 45.773438 L 343.730469 45.738281 L 343.734375 45.730469 L 343.757812 45.699219 L 343.765625 45.683594 L 343.765625 45.679688 L 343.769531 45.679688 L 343.773438 45.671875 L 343.773438 45.667969 L 343.78125 45.65625 L 343.789062 45.648438 L 343.789062 45.644531 C 345.246094 43.285156 345.8125 38.28125 344.621094 35.738281 L 344.621094 35.734375 L 344.578125 35.648438 C 344.273438 35.042969 343.878906 34.671875 343.421875 34.621094 C 342.960938 34.570312 342.5 34.847656 342.070312 35.375 L 338.46875 34.984375 C 337.917969 32.609375 336.753906 30.96875 335.257812 30.808594 C 335.144531 30.792969 335.027344 30.789062 334.914062 30.796875 L 334.359375 30.734375 C 334.246094 30.707031 334.136719 30.683594 334.019531 30.671875 C 333.902344 30.660156 333.792969 30.65625 333.675781 30.660156 C 333.117188 30.6875 332.5625 30.917969 332.039062 31.316406 C 335.058594 16.261719 341.453125 5.253906 347.890625 4.617188 C 348.066406 4.605469 348.238281 4.597656 348.414062 4.59375 C 348.476562 4.59375 348.546875 4.589844 348.613281 4.59375 C 348.453125 4.5625 348.289062 4.535156 348.125 4.515625 C 348.054688 4.507812 347.980469 4.503906 347.90625 4.5 C 347.734375 4.488281 347.5625 4.480469 347.390625 4.480469 C 340.578125 4.605469 333.730469 16.503906 330.773438 32.695312 C 329.722656 34.222656 328.921875 36.492188 328.644531 39.078125 C 328.367188 41.640625 328.660156 44.007812 329.347656 45.722656 C 328.71875 62.328125 332.890625 75.589844 339.5625 77.179688 Z M 339.039062 80.664062 C 338.894531 80.636719 338.757812 80.609375 338.613281 80.578125 C 338.753906 80.609375 338.894531 80.636719 339.039062 80.664062 Z M 338.605469 80.574219 C 338.464844 80.542969 338.328125 80.503906 338.191406 80.464844 C 338.328125 80.503906 338.464844 80.542969 338.605469 80.574219 "/>
<path style=" stroke:none;fill-rule:evenodd;fill:rgb(71.759033%,78.039551%,72.549438%);fill-opacity:1;" d="M 340.285156 77.300781 C 340.449219 77.320312 340.617188 77.332031 340.78125 77.335938 C 334.179688 76.046875 329.957031 63.4375 330.285156 47.359375 C 329.921875 46.925781 329.605469 46.371094 329.347656 45.722656 C 328.695312 62.921875 333.195312 76.535156 340.285156 77.300781 Z M 332.042969 31.316406 C 335.171875 15.699219 341.933594 4.433594 348.613281 4.59375 C 348.453125 4.5625 348.289062 4.535156 348.125 4.515625 C 341.078125 3.75 333.835938 15.921875 330.773438 32.695312 C 331.164062 32.125 331.589844 31.660156 332.042969 31.316406 "/>
<path style=" stroke:none;fill-rule:evenodd;fill:rgb(71.759033%,78.039551%,72.549438%);fill-opacity:1;" d="M 342.101562 46.886719 C 341.640625 46.835938 341.246094 46.464844 340.941406 45.859375 L 343.398438 46.125 L 343.417969 46.167969 L 343.449219 46.128906 C 343.023438 46.65625 342.5625 46.933594 342.101562 46.886719 Z M 342.070312 35.375 C 342.5 34.847656 342.960938 34.570312 343.421875 34.621094 C 343.878906 34.671875 344.273438 35.042969 344.578125 35.648438 Z M 344.589844 35.671875 L 344.605469 35.703125 L 344.605469 35.699219 L 344.601562 35.695312 L 344.601562 35.691406 L 344.597656 35.691406 L 344.597656 35.683594 L 344.59375 35.683594 L 344.59375 35.679688 L 344.589844 35.675781 Z M 344.605469 35.703125 L 344.621094 35.734375 Z M 344.589844 35.671875 L 344.589844 35.667969 L 344.585938 35.664062 L 344.585938 35.660156 L 344.582031 35.660156 L 344.582031 35.65625 L 344.578125 35.652344 L 344.578125 35.648438 L 344.554688 35.605469 L 344.527344 35.644531 L 342.070312 35.375 Z M 343.457031 46.121094 L 343.449219 46.128906 L 343.464844 46.109375 L 343.460938 46.113281 Z M 343.492188 46.074219 L 343.5 46.066406 L 343.511719 46.046875 L 343.492188 46.082031 Z M 343.53125 46.023438 L 343.535156 46.015625 L 343.539062 46.015625 L 343.523438 46.035156 Z M 343.542969 46.011719 L 343.539062 46.015625 L 343.5625 45.984375 L 343.558594 45.992188 L 343.554688 45.996094 Z M 343.570312 45.972656 L 343.574219 45.96875 L 343.582031 45.953125 L 343.589844 45.949219 L 343.5625 45.980469 Z M 343.617188 45.910156 L 343.609375 45.917969 L 343.597656 45.9375 L 343.589844 45.949219 L 343.609375 45.917969 L 343.613281 45.914062 L 343.636719 45.878906 L 343.632812 45.886719 L 343.621094 45.902344 Z M 343.640625 45.871094 L 343.636719 45.878906 L 343.660156 45.84375 L 343.65625 45.847656 L 343.652344 45.859375 Z M 343.664062 45.839844 L 343.667969 45.835938 L 343.671875 45.824219 L 343.660156 45.84375 Z M 343.679688 45.816406 L 343.683594 45.8125 L 343.683594 45.808594 L 343.671875 45.824219 Z M 343.6875 45.804688 L 343.683594 45.808594 L 343.707031 45.773438 L 343.703125 45.777344 L 343.699219 45.785156 Z M 343.710938 45.773438 L 343.707031 45.773438 Z M 343.710938 45.773438 L 343.71875 45.753906 L 343.726562 45.746094 L 343.730469 45.738281 Z M 344.714844 35.957031 L 344.71875 35.957031 Z M 344.71875 35.957031 L 344.71875 35.960938 Z M 344.71875 35.960938 L 344.71875 35.964844 Z M 344.71875 35.964844 L 344.722656 35.964844 Z M 344.722656 35.972656 L 344.726562 35.976562 Z M 344.726562 35.980469 Z M 344.738281 36.003906 L 344.738281 36.007812 L 344.734375 36.003906 Z M 344.738281 36.007812 L 344.738281 36.011719 Z M 344.75 36.03125 L 344.75 36.035156 Z M 344.75 36.042969 L 344.753906 36.046875 Z M 344.757812 36.058594 L 344.757812 36.066406 L 344.757812 36.0625 L 344.753906 36.046875 Z M 344.757812 36.066406 L 344.761719 36.070312 Z M 344.761719 36.070312 Z M 344.769531 36.089844 L 344.769531 36.09375 Z M 344.769531 36.085938 L 344.765625 36.085938 Z M 344.746094 36.027344 L 344.742188 36.023438 Z M 344.742188 36.023438 Z M 344.742188 36.015625 L 344.738281 36.011719 Z M 344.722656 35.96875 L 344.722656 35.964844 Z M 343.945312 45.375 Z M 343.933594 45.398438 L 343.933594 45.402344 Z M 343.933594 45.402344 L 343.929688 45.402344 Z M 343.914062 45.433594 L 343.914062 45.4375 Z M 343.910156 45.445312 L 343.90625 45.445312 Z M 343.902344 45.453125 L 343.902344 45.457031 L 343.898438 45.457031 Z M 343.902344 45.457031 L 343.898438 45.460938 Z M 343.894531 45.464844 L 343.894531 45.46875 Z M 343.890625 45.472656 L 343.890625 45.476562 Z M 343.890625 45.476562 L 343.886719 45.476562 Z M 343.886719 45.480469 L 343.886719 45.484375 Z M 343.878906 45.492188 Z M 343.875 45.5 L 343.875 45.503906 Z M 343.875 45.503906 L 343.871094 45.503906 Z M 343.871094 45.503906 L 343.871094 45.507812 Z M 343.871094 45.507812 L 343.871094 45.511719 Z M 343.871094 45.511719 L 343.867188 45.511719 Z M 343.867188 45.511719 L 343.867188 45.515625 Z M 343.851562 45.546875 L 343.847656 45.550781 Z M 343.847656 45.550781 L 343.84375 45.550781 Z M 343.835938 45.566406 Z M 343.835938 45.570312 L 343.832031 45.570312 Z M 343.828125 45.574219 L 343.828125 45.578125 Z M 343.828125 45.585938 L 343.824219 45.585938 Z M 343.824219 45.589844 L 343.820312 45.59375 Z M 343.804688 45.621094 L 343.800781 45.625 Z M 343.8125 45.609375 L 343.820312 45.59375 L 343.8125 45.609375 "/>
<path style=" stroke:none;fill-rule:evenodd;fill:rgb(100%,100%,100%);fill-opacity:1;" d="M 344.554688 35.605469 L 344.578125 35.648438 L 344.527344 35.644531 Z M 343.449219 46.128906 L 343.417969 46.167969 L 343.398438 46.125 Z M 343.449219 46.128906 "/>
<path style=" stroke:none;fill-rule:evenodd;fill:rgb(0%,0%,0%);fill-opacity:1;" d="M 343.449219 46.128906 L 337.238281 45.457031 C 337.964844 44.023438 338.503906 42.195312 338.722656 40.171875 C 338.925781 38.273438 338.820312 36.484375 338.46875 34.984375 L 344.578125 35.648438 C 345.15625 36.800781 345.414062 38.792969 345.171875 41.015625 C 344.933594 43.238281 344.257812 45.128906 343.449219 46.128906 "/>
<path style=" stroke:none;fill-rule:evenodd;fill:rgb(50.19989%,50.19989%,50.19989%);fill-opacity:1;" d="M 332.75 44.96875 C 331.417969 44.824219 330.589844 42.359375 330.902344 39.464844 C 331.214844 36.570312 332.546875 34.339844 333.878906 34.488281 C 335.210938 34.628906 336.039062 37.09375 335.726562 39.988281 C 335.414062 42.882812 334.082031 45.113281 332.75 44.96875 "/>
<path style=" stroke:none;fill-rule:evenodd;fill:rgb(71.759033%,78.039551%,72.549438%);fill-opacity:1;" d="M 333.675781 30.660156 Z M 334.359375 30.734375 L 334.914062 30.796875 C 335.027344 30.789062 335.144531 30.792969 335.257812 30.808594 C 337.699219 31.074219 339.25 35.265625 338.722656 40.171875 C 338.191406 45.078125 335.785156 48.84375 333.34375 48.578125 L 332.109375 48.441406 C 331.992188 48.429688 331.878906 48.410156 331.769531 48.378906 L 331.765625 48.40625 L 332.109375 48.441406 C 334.546875 48.707031 336.953125 44.945312 337.484375 40.039062 C 337.988281 35.359375 336.601562 31.332031 334.359375 30.734375 "/>
<path style=" stroke:none;fill-rule:evenodd;fill:rgb(0%,0%,0%);fill-opacity:1;" d="M 332.109375 48.441406 C 329.664062 48.175781 328.117188 43.984375 328.644531 39.078125 C 329.171875 34.171875 331.578125 30.40625 334.019531 30.671875 C 336.460938 30.9375 338.011719 35.128906 337.484375 40.039062 C 336.953125 44.945312 334.546875 48.707031 332.109375 48.441406 "/>
<path style=" stroke:none;fill-rule:evenodd;fill:rgb(0%,0%,0%);fill-opacity:1;" d="M 123.84375 31.417969 C 126.707031 30.792969 129.613281 30.160156 132.519531 29.574219 C 134.414062 29.191406 135.867188 29.296875 136.875 29.894531 C 137.886719 30.496094 138.449219 31.515625 138.550781 32.953125 C 138.652344 34.421875 138.1875 35.671875 137.21875 36.691406 C 136.230469 37.726562 134.714844 38.449219 132.597656 38.875 C 131.667969 39.058594 130.722656 39.257812 129.773438 39.464844 C 129.792969 40.367188 129.886719 41.265625 129.957031 42.164062 C 130.027344 43.0625 130.097656 43.96875 130.136719 44.863281 C 128.421875 45.246094 126.6875 45.628906 124.972656 46 C 124.792969 43.570312 124.628906 41.140625 124.429688 38.710938 C 124.226562 36.277344 124.023438 33.847656 123.84375 31.417969 Z M 129.53125 36.511719 C 129.957031 36.421875 130.378906 36.324219 130.804688 36.238281 C 131.832031 36.03125 132.515625 35.738281 132.902344 35.355469 C 133.300781 34.964844 133.496094 34.542969 133.464844 34.070312 C 133.4375 33.613281 133.222656 33.265625 132.820312 33.011719 C 132.433594 32.773438 131.769531 32.738281 130.78125 32.9375 C 130.296875 33.03125 129.792969 33.144531 129.289062 33.253906 C 129.390625 34.339844 129.433594 35.425781 129.53125 36.511719 Z M 140.789062 35.398438 C 140.71875 34.203125 140.828125 33.117188 141.152344 32.117188 C 141.472656 31.128906 141.984375 30.226562 142.726562 29.417969 C 144.179688 27.835938 146.351562 26.792969 149.121094 26.363281 C 151.960938 25.917969 154.171875 26.253906 155.796875 27.347656 C 156.59375 27.882812 157.199219 28.597656 157.632812 29.464844 C 158.066406 30.324219 158.308594 31.339844 158.378906 32.515625 C 158.429688 33.371094 158.367188 34.160156 158.238281 34.878906 C 158.105469 35.601562 157.886719 36.261719 157.59375 36.839844 C 156.996094 38.027344 156.058594 39 154.828125 39.796875 C 153.597656 40.589844 152.0625 41.113281 150.1875 41.40625 C 148.269531 41.707031 146.679688 41.722656 145.386719 41.402344 C 144.117188 41.085938 143.035156 40.425781 142.203125 39.441406 C 141.78125 38.941406 141.433594 38.355469 141.210938 37.6875 C 140.988281 37.007812 140.839844 36.246094 140.789062 35.398438 Z M 146.015625 34.5 C 146.113281 35.96875 146.476562 36.980469 147.144531 37.515625 C 147.808594 38.050781 148.714844 38.21875 149.808594 38.046875 C 150.933594 37.871094 151.777344 37.433594 152.347656 36.71875 C 152.929688 35.992188 153.203125 34.816406 153.113281 33.183594 C 153.039062 31.8125 152.648438 30.863281 151.964844 30.324219 C 151.277344 29.789062 150.390625 29.59375 149.261719 29.769531 C 148.191406 29.933594 147.378906 30.410156 146.78125 31.152344 C 146.167969 31.910156 145.914062 33.015625 146.015625 34.5 Z M 158.679688 25.242188 C 160.355469 25.023438 162.03125 24.808594 163.726562 24.613281 C 164.089844 25.933594 164.46875 27.25 164.835938 28.578125 C 165.195312 29.890625 165.539062 31.21875 165.902344 32.539062 C 166.265625 31.132812 166.671875 29.722656 167.035156 28.316406 C 167.398438 26.914062 167.800781 25.5 168.183594 24.09375 C 169.835938 23.925781 171.511719 23.757812 173.1875 23.585938 C 173.710938 24.898438 174.203125 26.207031 174.699219 27.527344 C 175.191406 28.847656 175.6875 30.167969 176.171875 31.492188 C 176.414062 30.101562 176.6875 28.71875 176.941406 27.332031 C 177.191406 25.949219 177.421875 24.5625 177.707031 23.175781 C 179.378906 23.03125 181.054688 22.890625 182.730469 22.769531 C 182.164062 25.246094 181.617188 27.722656 181.074219 30.203125 C 180.527344 32.679688 180.003906 35.167969 179.460938 37.65625 C 177.726562 37.804688 176.011719 37.960938 174.296875 38.121094 C 173.710938 36.636719 173.195312 35.160156 172.621094 33.683594 C 172.046875 32.199219 171.472656 30.722656 170.90625 29.242188 C 170.503906 30.824219 170.007812 32.410156 169.597656 33.992188 C 169.179688 35.574219 168.75 37.152344 168.347656 38.734375 C 166.628906 38.9375 164.894531 39.140625 163.179688 39.34375 C 162.433594 36.988281 161.6875 34.632812 160.941406 32.289062 C 160.195312 29.941406 159.429688 27.59375 158.679688 25.242188 Z M 184.484375 22.636719 C 189.222656 22.316406 193.984375 22.039062 198.765625 21.804688 C 198.785156 22.84375 198.804688 23.882812 198.824219 24.921875 C 195.820312 25.066406 192.875 25.214844 189.910156 25.394531 C 189.929688 26.167969 189.949219 26.945312 189.972656 27.71875 C 192.714844 27.550781 195.457031 27.410156 198.222656 27.277344 C 198.242188 28.269531 198.261719 29.257812 198.28125 30.25 C 195.515625 30.386719 192.792969 30.523438 190.050781 30.691406 C 190.070312 31.652344 190.09375 32.605469 190.132812 33.5625 C 193.15625 33.378906 196.183594 33.226562 199.25 33.078125 C 199.269531 34.179688 199.289062 35.277344 199.308594 36.378906 C 194.507812 36.617188 189.707031 36.898438 184.929688 37.222656 C 184.867188 34.792969 184.785156 32.359375 184.707031 29.929688 C 184.625 27.5 184.542969 25.066406 184.484375 22.636719 Z M 202.214844 36.265625 C 202.175781 33.832031 202.136719 31.402344 202.09375 28.972656 C 202.054688 26.542969 202.015625 24.109375 201.972656 21.679688 C 204.9375 21.570312 207.90625 21.484375 210.886719 21.414062 C 212.542969 21.371094 213.792969 21.476562 214.664062 21.699219 C 215.550781 21.925781 216.25 22.367188 216.78125 22.996094 C 217.320312 23.640625 217.597656 24.421875 217.605469 25.351562 C 217.617188 26.160156 217.390625 26.855469 216.984375 27.457031 C 216.585938 28.046875 216.054688 28.535156 215.328125 28.914062 C 214.882812 29.148438 214.257812 29.355469 213.449219 29.523438 C 214.097656 29.691406 214.558594 29.867188 214.84375 30.039062 C 215.042969 30.15625 215.347656 30.40625 215.710938 30.792969 C 216.074219 31.175781 216.332031 31.476562 216.457031 31.6875 C 216.875 32.386719 217.304688 33.082031 217.726562 33.773438 C 218.152344 34.46875 218.59375 35.167969 219.058594 35.867188 C 217.042969 35.890625 215.042969 35.921875 213.046875 35.953125 C 212.582031 35.21875 212.09375 34.492188 211.617188 33.757812 C 211.144531 33.03125 210.675781 32.296875 210.203125 31.566406 C 209.828125 30.996094 209.5 30.628906 209.214844 30.46875 C 208.835938 30.25 208.429688 30.152344 207.945312 30.164062 C 207.78125 30.167969 207.621094 30.175781 207.460938 30.175781 C 207.460938 31.164062 207.46875 32.148438 207.480469 33.132812 C 207.492188 34.117188 207.523438 35.101562 207.523438 36.085938 C 205.746094 36.132812 203.96875 36.199219 202.214844 36.265625 Z M 207.417969 27.425781 C 208.144531 27.410156 208.890625 27.386719 209.660156 27.367188 C 209.898438 27.363281 210.382812 27.277344 211.074219 27.132812 C 211.433594 27.058594 211.703125 26.914062 211.9375 26.652344 C 212.164062 26.402344 212.289062 26.117188 212.28125 25.796875 C 212.269531 25.324219 212.085938 24.957031 211.738281 24.722656 C 211.359375 24.46875 210.6875 24.371094 209.699219 24.394531 C 208.914062 24.414062 208.125 24.433594 207.378906 24.453125 C 207.378906 25.445312 207.398438 26.4375 207.417969 27.425781 Z M 220.710938 21.273438 C 222.46875 21.261719 224.246094 21.253906 226.019531 21.261719 C 226.019531 23.09375 226.019531 24.925781 226.019531 26.757812 C 226.019531 28.59375 226.019531 30.425781 226.019531 32.257812 C 228.78125 32.273438 231.546875 32.296875 234.289062 32.335938 C 234.289062 33.53125 234.289062 34.730469 234.269531 35.921875 C 229.75 35.863281 225.210938 35.84375 220.753906 35.859375 C 220.734375 33.425781 220.746094 30.996094 220.734375 28.566406 C 220.722656 26.136719 220.710938 23.703125 220.710938 21.273438 Z M 237.011719 21.375 C 238.789062 21.417969 240.582031 21.464844 242.378906 21.507812 C 242.359375 23.941406 242.308594 26.371094 242.277344 28.804688 C 242.246094 31.230469 242.21875 33.664062 242.199219 36.09375 C 240.421875 36.050781 238.648438 36.003906 236.890625 35.960938 C 236.914062 33.53125 236.933594 31.097656 236.953125 28.671875 C 236.972656 26.238281 236.992188 23.808594 237.011719 21.375 Z M 246.210938 21.636719 C 250.628906 21.808594 255.027344 22.023438 259.425781 22.277344 C 259.402344 23.320312 259.367188 24.367188 259.34375 25.414062 C 256.742188 25.253906 254.140625 25.121094 251.515625 24.992188 C 251.496094 25.835938 251.476562 26.6875 251.457031 27.535156 C 253.695312 27.644531 255.894531 27.753906 258.152344 27.886719 C 258.132812 28.871094 258.113281 29.855469 258.09375 30.839844 C 255.832031 30.707031 253.636719 30.597656 251.414062 30.488281 C 251.375 31.480469 251.347656 32.472656 251.335938 33.464844 C 251.328125 34.453125 251.316406 35.445312 251.273438 36.4375 C 249.5 36.355469 247.746094 36.289062 245.96875 36.222656 C 246.007812 33.789062 246.050781 31.359375 246.089844 28.929688 C 246.132812 26.5 246.171875 24.066406 246.210938 21.636719 Z M 261.101562 22.375 C 266.488281 22.757812 271.890625 23.199219 277.277344 23.699219 C 277.21875 24.902344 277.175781 26.105469 277.136719 27.308594 C 275.320312 27.121094 273.503906 26.960938 271.730469 26.800781 C 271.648438 28.632812 271.589844 30.460938 271.527344 32.289062 C 271.46875 34.121094 271.386719 35.949219 271.328125 37.777344 C 269.574219 37.621094 267.816406 37.476562 266.082031 37.34375 C 266.144531 35.515625 266.203125 33.6875 266.261719 31.855469 C 266.324219 30.027344 266.363281 28.195312 266.425781 26.367188 C 264.609375 26.234375 262.796875 26.097656 261 25.980469 C 261.039062 24.78125 261.058594 23.582031 261.101562 22.375 Z M 279.902344 23.96875 C 281.675781 24.152344 283.449219 24.359375 285.226562 24.566406 C 285.125 26.996094 285.003906 29.425781 284.882812 31.859375 C 284.761719 34.289062 284.660156 36.71875 284.539062 39.148438 C 282.785156 38.941406 281.03125 38.734375 279.273438 38.550781 C 279.375 36.121094 279.46875 33.691406 279.578125 31.257812 C 279.691406 28.828125 279.800781 26.398438 279.902344 23.96875 Z M 289.058594 25.035156 C 290.695312 25.25 292.347656 25.46875 294 25.683594 C 294.988281 27.1875 295.992188 28.691406 296.964844 30.1875 C 297.949219 31.6875 298.945312 33.183594 299.953125 34.683594 C 300.011719 33.34375 300.105469 32.003906 300.175781 30.660156 C 300.242188 29.320312 300.335938 27.976562 300.417969 26.636719 C 302.070312 26.90625 303.746094 27.179688 305.398438 27.453125 C 305.257812 29.882812 305.097656 32.316406 304.933594 34.742188 C 304.773438 37.167969 304.632812 39.601562 304.492188 42.03125 C 302.859375 41.757812 301.203125 41.488281 299.566406 41.214844 C 298.582031 39.722656 297.59375 38.210938 296.644531 36.738281 C 295.675781 35.238281 294.664062 33.753906 293.699219 32.265625 C 293.617188 33.601562 293.546875 34.9375 293.476562 36.269531 C 293.40625 37.601562 293.335938 38.9375 293.253906 40.273438 C 291.601562 40.050781 289.949219 39.832031 288.332031 39.617188 C 288.453125 37.183594 288.554688 34.753906 288.675781 32.324219 C 288.796875 29.894531 288.9375 27.464844 289.058594 25.035156 Z M 316.777344 39 C 316.839844 37.992188 316.917969 36.980469 316.996094 35.96875 C 319.660156 36.519531 322.34375 37.105469 325.046875 37.691406 C 324.949219 38.726562 324.886719 39.761719 324.804688 40.792969 C 324.722656 41.828125 324.644531 42.863281 324.5625 43.894531 C 322.949219 44.464844 321.539062 44.792969 320.347656 44.859375 C 319.136719 44.933594 317.726562 44.789062 316.109375 44.464844 C 314.136719 44.066406 312.523438 43.441406 311.308594 42.613281 C 310.101562 41.789062 309.167969 40.742188 308.546875 39.445312 C 308.238281 38.800781 308 38.125 307.882812 37.421875 C 307.757812 36.726562 307.730469 35.996094 307.777344 35.242188 C 307.832031 34.445312 307.992188 33.722656 308.222656 33.0625 C 308.453125 32.40625 308.785156 31.8125 309.191406 31.296875 C 310.015625 30.257812 311.1875 29.554688 312.722656 29.230469 C 313.910156 28.972656 315.507812 29.054688 317.441406 29.441406 C 319.316406 29.816406 320.675781 30.253906 321.597656 30.761719 C 322.488281 31.25 323.21875 31.867188 323.777344 32.617188 C 324.328125 33.359375 324.746094 34.238281 324.988281 35.25 C 323.273438 35.144531 321.554688 35.039062 319.902344 34.933594 C 319.722656 34.339844 319.40625 33.832031 318.933594 33.4375 C 318.457031 33.035156 317.828125 32.773438 317.078125 32.621094 C 315.949219 32.390625 314.984375 32.554688 314.277344 33.101562 C 313.550781 33.65625 313.121094 34.671875 313.023438 36.15625 C 312.921875 37.730469 313.183594 38.925781 313.8125 39.734375 C 314.453125 40.554688 315.382812 41.074219 316.59375 41.324219 C 317.160156 41.4375 317.722656 41.472656 318.269531 41.441406 C 318.8125 41.402344 319.4375 41.289062 320.125 41.09375 C 320.167969 40.640625 320.1875 40.183594 320.226562 39.726562 C 319.078125 39.476562 317.90625 39.234375 316.777344 39 "/>
<path style=" stroke:none;fill-rule:evenodd;fill:rgb(0%,0%,0%);fill-opacity:1;" d="M 5.601562 57.09375 L 9.324219 56.6875 C 9.046875 54.984375 8.804688 53.238281 8.613281 51.464844 C 8.421875 49.683594 8.285156 47.929688 8.195312 46.203125 L 4.46875 46.609375 L 4.46875 46.613281 L 4.464844 46.613281 C 4.398438 46.621094 4.332031 46.632812 4.265625 46.648438 L 3.9375 46.683594 C 3.871094 46.683594 3.804688 46.683594 3.734375 46.691406 C 2.296875 46.847656 1.382812 49.320312 1.695312 52.214844 C 2.003906 55.105469 3.425781 57.324219 4.867188 57.167969 L 5.59375 57.089844 L 5.597656 57.089844 L 5.601562 57.09375 "/>
<path style=" stroke:none;fill-rule:evenodd;fill:rgb(0%,0%,0%);fill-opacity:1;" d="M 27.316406 9.226562 Z M 24.703125 9.507812 L 22.570312 9.738281 C 22.132812 9.707031 21.695312 9.714844 21.253906 9.765625 C 11.902344 10.78125 6.242188 29.449219 8.613281 51.464844 C 10.984375 73.476562 20.488281 90.5 29.839844 89.484375 L 34.578125 88.96875 C 25.230469 89.980469 15.730469 72.957031 13.359375 50.949219 C 11.101562 29.964844 16.132812 12.023438 24.703125 9.507812 Z M 34.585938 88.96875 L 35.886719 88.828125 L 35.875 88.710938 C 35.453125 88.835938 35.023438 88.921875 34.585938 88.96875 "/>
<path style=" stroke:none;fill-rule:evenodd;fill:rgb(0%,0%,0%);fill-opacity:1;" d="M 35.757812 8.308594 L 35.753906 8.308594 Z M 33.144531 8.589844 L 31.011719 8.824219 C 30.574219 8.792969 30.132812 8.800781 29.691406 8.847656 C 20.34375 9.863281 14.6875 28.53125 17.054688 50.546875 C 19.425781 72.558594 28.925781 89.582031 38.277344 88.566406 L 43.023438 88.050781 C 43.460938 88.003906 43.894531 87.917969 44.316406 87.792969 L 44.328125 87.910156 L 43.023438 88.050781 C 33.671875 89.066406 24.167969 72.046875 21.800781 50.03125 C 19.539062 29.050781 24.574219 11.109375 33.144531 8.589844 "/>
<path style=" stroke:none;fill-rule:evenodd;fill:rgb(0%,0%,0%);fill-opacity:1;" d="M 44.195312 7.390625 Z M 41.585938 7.671875 L 39.449219 7.90625 C 39.011719 7.875 38.570312 7.882812 38.132812 7.929688 C 28.78125 8.945312 23.125 27.617188 25.496094 49.632812 C 27.863281 71.644531 37.367188 88.664062 46.71875 87.652344 L 51.460938 87.136719 C 42.109375 88.152344 32.609375 71.128906 30.238281 49.113281 C 27.980469 28.136719 33.011719 10.195312 41.585938 7.671875 Z M 51.460938 87.136719 L 52.765625 86.996094 L 52.753906 86.878906 C 52.332031 87 51.898438 87.089844 51.460938 87.136719 "/>
<path style=" stroke:none;fill-rule:evenodd;fill:rgb(0%,0%,0%);fill-opacity:1;" d="M 52.636719 6.472656 L 52.632812 6.472656 Z M 50.023438 6.757812 L 47.890625 6.992188 C 47.453125 6.960938 47.011719 6.96875 46.574219 7.015625 C 37.222656 8.03125 31.5625 26.699219 33.933594 48.714844 C 36.304688 70.726562 45.804688 87.75 55.15625 86.734375 L 59.902344 86.222656 C 60.339844 86.171875 60.769531 86.085938 61.195312 85.960938 L 61.207031 86.078125 L 59.902344 86.222656 C 50.550781 87.238281 41.046875 70.214844 38.675781 48.199219 C 36.417969 27.21875 41.453125 9.277344 50.023438 6.757812 "/>
<path style=" stroke:none;fill-rule:evenodd;fill:rgb(0%,0%,0%);fill-opacity:1;" d="M 61.074219 5.558594 Z M 58.464844 5.84375 L 56.332031 6.074219 C 55.890625 6.042969 55.449219 6.050781 55.011719 6.097656 C 45.660156 7.113281 40.003906 25.785156 42.375 47.796875 C 44.742188 69.8125 54.246094 86.835938 63.597656 85.820312 L 68.339844 85.304688 C 68.777344 85.253906 69.210938 85.167969 69.636719 85.046875 L 69.648438 85.160156 L 68.339844 85.304688 C 58.992188 86.316406 49.488281 69.296875 47.117188 47.28125 C 44.859375 26.300781 49.890625 8.359375 58.464844 5.84375 "/>
<path style=" stroke:none;fill-rule:evenodd;fill:rgb(0%,0%,0%);fill-opacity:1;" d="M 66.902344 4.925781 L 64.769531 5.15625 C 64.332031 5.125 63.890625 5.136719 63.449219 5.183594 C 54.101562 6.199219 48.441406 24.867188 50.8125 46.882812 C 53.183594 68.894531 62.6875 85.917969 72.035156 84.902344 L 76.777344 84.386719 C 67.425781 85.398438 57.929688 68.375 55.554688 46.367188 C 53.296875 25.386719 58.332031 7.445312 66.902344 4.925781 Z M 76.785156 84.386719 L 78.085938 84.246094 L 78.074219 84.128906 C 77.652344 84.253906 77.222656 84.339844 76.785156 84.386719 "/>
<path style=" stroke:none;fill-rule:evenodd;fill:rgb(0%,0%,0%);fill-opacity:1;" d="M 75.339844 4.007812 L 73.207031 4.242188 C 72.769531 4.210938 72.332031 4.21875 71.890625 4.265625 C 62.542969 5.28125 56.882812 23.949219 59.25 45.964844 C 61.621094 67.976562 71.125 85 80.476562 83.984375 L 85.21875 83.46875 C 85.660156 83.425781 86.089844 83.335938 86.511719 83.214844 L 86.527344 83.328125 L 85.21875 83.46875 C 75.867188 84.488281 66.367188 67.464844 63.996094 45.449219 C 61.738281 24.46875 66.769531 6.527344 75.339844 4.007812 "/>
<path style=" stroke:none;fill-rule:evenodd;fill:rgb(0%,0%,0%);fill-opacity:1;" d="M 83.78125 3.09375 L 81.648438 3.324219 C 81.210938 3.292969 80.769531 3.300781 80.332031 3.347656 C 70.980469 4.363281 65.324219 23.035156 67.691406 45.050781 C 70.0625 67.0625 79.566406 84.085938 88.914062 83.070312 L 93.660156 82.554688 C 94.097656 82.507812 94.53125 82.421875 94.953125 82.296875 L 94.964844 82.414062 L 93.660156 82.554688 C 84.308594 83.570312 74.804688 66.546875 72.433594 44.53125 C 70.175781 23.554688 75.210938 5.613281 83.78125 3.09375 "/>
<path style=" stroke:none;fill-rule:evenodd;fill:rgb(0%,0%,0%);fill-opacity:1;" d="M 92.21875 2.175781 L 90.085938 2.410156 C 89.648438 2.378906 89.210938 2.386719 88.769531 2.433594 C 79.417969 3.449219 73.761719 22.117188 76.132812 44.132812 C 78.503906 66.148438 88.003906 83.167969 97.355469 82.152344 L 102.097656 81.640625 C 102.539062 81.589844 102.96875 81.503906 103.390625 81.382812 L 103.40625 81.496094 L 102.097656 81.640625 C 92.746094 82.652344 83.246094 65.628906 80.875 43.617188 C 78.617188 22.636719 83.648438 4.695312 92.21875 2.175781 "/>
<path style=" stroke:none;fill-rule:evenodd;fill:rgb(0%,0%,0%);fill-opacity:1;" d="M 98.53125 1.492188 C 98.089844 1.460938 97.648438 1.46875 97.210938 1.515625 C 87.859375 2.53125 82.203125 21.203125 84.570312 43.214844 C 86.941406 65.230469 96.445312 82.25 105.792969 81.238281 L 110.539062 80.722656 C 110.679688 80.707031 110.824219 80.6875 110.96875 80.664062 C 110.824219 80.6875 110.683594 80.707031 110.539062 80.722656 L 111.84375 80.582031 L 111.832031 80.464844 C 120.402344 77.945312 125.433594 60.003906 123.175781 39.023438 C 120.804688 17.007812 111.304688 -0.0117188 101.953125 1.003906 C 100.285156 1.183594 100.523438 1.277344 98.53125 1.492188 Z M 110.453125 77.179688 C 110.285156 77.21875 110.117188 77.25 109.945312 77.273438 C 109.871094 77.285156 109.800781 77.296875 109.726562 77.300781 C 109.5625 77.320312 109.398438 77.332031 109.234375 77.335938 C 109.296875 77.320312 109.363281 77.304688 109.429688 77.289062 C 109.597656 77.25 109.765625 77.207031 109.933594 77.152344 C 116.128906 75.140625 120.042969 62.863281 119.730469 47.359375 C 119.296875 47.878906 118.796875 48.234375 118.246094 48.378906 L 118.25 48.40625 L 117.910156 48.441406 L 116.667969 48.578125 C 115.234375 48.734375 113.8125 47.496094 112.777344 45.457031 L 109.070312 45.859375 C 108.765625 46.464844 108.371094 46.835938 107.914062 46.886719 C 107.457031 46.933594 106.992188 46.65625 106.566406 46.128906 L 106.550781 46.109375 L 106.527344 46.082031 L 106.523438 46.082031 L 106.5 46.046875 L 106.488281 46.035156 L 106.472656 46.015625 L 106.449219 45.984375 L 106.449219 45.980469 L 106.425781 45.949219 L 106.40625 45.917969 L 106.402344 45.914062 L 106.378906 45.878906 L 106.351562 45.84375 L 106.339844 45.824219 L 106.328125 45.808594 L 106.28125 45.738281 L 106.257812 45.699219 L 106.253906 45.691406 L 106.25 45.6875 L 106.25 45.683594 L 106.246094 45.679688 L 106.242188 45.679688 L 106.242188 45.671875 L 106.238281 45.667969 L 106.230469 45.65625 L 106.226562 45.644531 L 106.222656 45.644531 C 104.769531 43.285156 104.203125 38.28125 105.394531 35.738281 L 105.394531 35.734375 L 105.4375 35.648438 C 105.738281 35.042969 106.132812 34.671875 106.59375 34.621094 C 107.050781 34.570312 107.515625 34.847656 107.941406 35.375 L 111.542969 34.984375 C 112.097656 32.609375 113.257812 30.96875 114.753906 30.808594 C 114.871094 30.792969 114.984375 30.789062 115.097656 30.796875 L 115.65625 30.734375 C 115.765625 30.707031 115.878906 30.683594 115.996094 30.671875 C 116.109375 30.660156 116.222656 30.65625 116.335938 30.660156 L 116.339844 30.660156 C 116.898438 30.6875 117.449219 30.917969 117.976562 31.316406 C 114.957031 16.261719 108.5625 5.253906 102.121094 4.617188 C 101.949219 4.605469 101.773438 4.597656 101.601562 4.59375 C 101.535156 4.59375 101.464844 4.589844 101.402344 4.59375 C 101.5625 4.5625 101.722656 4.535156 101.886719 4.515625 C 101.960938 4.507812 102.035156 4.503906 102.109375 4.5 C 102.28125 4.488281 102.453125 4.480469 102.625 4.480469 C 109.433594 4.605469 116.285156 16.503906 119.238281 32.695312 C 120.292969 34.222656 121.09375 36.492188 121.371094 39.078125 C 121.644531 41.640625 121.355469 44.007812 120.664062 45.722656 C 121.296875 62.328125 117.125 75.589844 110.453125 77.179688 Z M 110.976562 80.664062 C 111.117188 80.636719 111.261719 80.609375 111.398438 80.578125 C 111.261719 80.609375 111.117188 80.636719 110.976562 80.664062 Z M 111.410156 80.574219 C 111.546875 80.542969 111.6875 80.503906 111.824219 80.464844 C 111.6875 80.503906 111.546875 80.542969 111.410156 80.574219 "/>
<path style=" stroke:none;fill-rule:evenodd;fill:rgb(71.759033%,78.039551%,72.549438%);fill-opacity:1;" d="M 109.726562 77.300781 C 109.5625 77.320312 109.398438 77.332031 109.234375 77.335938 C 115.835938 76.046875 120.054688 63.4375 119.730469 47.359375 C 120.09375 46.925781 120.410156 46.371094 120.664062 45.722656 C 121.316406 62.921875 116.820312 76.535156 109.726562 77.300781 Z M 117.972656 31.316406 C 114.84375 15.699219 108.078125 4.433594 101.402344 4.59375 C 101.5625 4.5625 101.722656 4.535156 101.886719 4.515625 C 108.9375 3.75 116.179688 15.921875 119.242188 32.695312 C 118.847656 32.125 118.421875 31.660156 117.972656 31.316406 "/>
<path style=" stroke:none;fill-rule:evenodd;fill:rgb(71.759033%,78.039551%,72.549438%);fill-opacity:1;" d="M 107.914062 46.886719 C 108.371094 46.835938 108.765625 46.464844 109.070312 45.859375 L 106.617188 46.125 L 106.597656 46.167969 L 106.566406 46.128906 C 106.992188 46.65625 107.457031 46.933594 107.914062 46.886719 Z M 107.941406 35.375 C 107.515625 34.847656 107.050781 34.570312 106.59375 34.621094 C 106.132812 34.671875 105.738281 35.042969 105.4375 35.648438 Z M 105.425781 35.671875 L 105.410156 35.703125 L 105.410156 35.695312 L 105.414062 35.695312 L 105.414062 35.6875 L 105.417969 35.683594 L 105.417969 35.679688 L 105.421875 35.675781 L 105.421875 35.671875 Z M 105.410156 35.703125 L 105.394531 35.734375 Z M 105.425781 35.671875 L 105.425781 35.667969 L 105.429688 35.664062 L 105.429688 35.660156 L 105.433594 35.65625 L 105.433594 35.652344 L 105.4375 35.648438 L 105.457031 35.605469 L 105.488281 35.644531 L 107.941406 35.375 Z M 106.558594 46.121094 L 106.566406 46.128906 L 106.550781 46.109375 L 106.554688 46.113281 Z M 106.519531 46.074219 L 106.511719 46.066406 L 106.5 46.046875 L 106.523438 46.082031 Z M 106.484375 46.023438 L 106.476562 46.015625 L 106.472656 46.015625 L 106.488281 46.035156 Z M 106.472656 46.011719 L 106.472656 46.015625 L 106.449219 45.984375 L 106.460938 45.996094 Z M 106.445312 45.972656 L 106.433594 45.960938 L 106.429688 45.953125 L 106.425781 45.949219 L 106.449219 45.980469 Z M 106.398438 45.910156 L 106.40625 45.917969 L 106.417969 45.9375 L 106.425781 45.949219 L 106.40625 45.917969 L 106.402344 45.917969 L 106.402344 45.914062 L 106.378906 45.878906 L 106.390625 45.902344 Z M 106.371094 45.871094 L 106.378906 45.878906 L 106.351562 45.84375 L 106.355469 45.847656 L 106.363281 45.859375 L 106.367188 45.863281 Z M 106.351562 45.839844 L 106.34375 45.835938 L 106.339844 45.824219 L 106.351562 45.84375 Z M 106.335938 45.816406 L 106.328125 45.808594 L 106.339844 45.824219 Z M 106.324219 45.804688 L 106.328125 45.808594 L 106.304688 45.773438 L 106.316406 45.785156 Z M 106.304688 45.773438 Z M 106.304688 45.773438 L 106.292969 45.753906 L 106.289062 45.746094 L 106.28125 45.738281 Z M 105.296875 35.957031 L 105.292969 35.957031 Z M 105.292969 35.957031 L 105.292969 35.960938 Z M 105.292969 35.960938 L 105.292969 35.964844 Z M 105.292969 35.964844 Z M 105.289062 35.972656 L 105.289062 35.976562 Z M 105.289062 35.980469 L 105.285156 35.980469 Z M 105.277344 36.003906 L 105.277344 36.007812 Z M 105.277344 36.007812 L 105.273438 36.011719 Z M 105.265625 36.03125 L 105.265625 36.035156 Z M 105.265625 36.042969 L 105.261719 36.046875 Z M 105.257812 36.058594 L 105.257812 36.0625 L 105.253906 36.066406 L 105.253906 36.0625 L 105.261719 36.046875 Z M 105.253906 36.066406 L 105.25 36.070312 Z M 105.25 36.070312 Z M 105.246094 36.089844 L 105.242188 36.09375 Z M 105.246094 36.085938 Z M 105.265625 36.027344 L 105.269531 36.023438 Z M 105.269531 36.023438 Z M 105.273438 36.015625 L 105.273438 36.011719 Z M 105.289062 35.96875 L 105.292969 35.964844 Z M 106.070312 45.375 Z M 106.082031 45.398438 L 106.082031 45.402344 Z M 106.082031 45.402344 L 106.085938 45.402344 Z M 106.101562 45.433594 L 106.101562 45.4375 Z M 106.105469 45.445312 L 106.109375 45.445312 Z M 106.109375 45.453125 L 106.113281 45.457031 Z M 106.113281 45.457031 L 106.113281 45.460938 Z M 106.117188 45.464844 L 106.121094 45.46875 Z M 106.121094 45.472656 L 106.125 45.476562 Z M 106.125 45.476562 Z M 106.128906 45.480469 L 106.128906 45.484375 Z M 106.132812 45.492188 Z M 106.136719 45.5 L 106.140625 45.503906 Z M 106.140625 45.503906 Z M 106.140625 45.503906 L 106.144531 45.507812 Z M 106.144531 45.507812 L 106.144531 45.511719 Z M 106.144531 45.511719 Z M 106.144531 45.511719 L 106.148438 45.515625 Z M 106.164062 45.546875 L 106.167969 45.550781 Z M 106.167969 45.550781 Z M 106.175781 45.566406 Z M 106.179688 45.570312 Z M 106.183594 45.574219 L 106.183594 45.578125 Z M 106.1875 45.585938 L 106.191406 45.585938 Z M 106.191406 45.589844 L 106.195312 45.59375 Z M 106.210938 45.621094 L 106.214844 45.625 Z M 106.203125 45.609375 L 106.195312 45.59375 L 106.203125 45.609375 "/>
<path style=" stroke:none;fill-rule:evenodd;fill:rgb(100%,100%,100%);fill-opacity:1;" d="M 105.457031 35.605469 L 105.4375 35.648438 L 105.488281 35.644531 Z M 106.566406 46.128906 L 106.597656 46.167969 L 106.617188 46.125 Z M 106.566406 46.128906 "/>
<path style=" stroke:none;fill-rule:evenodd;fill:rgb(0%,0%,0%);fill-opacity:1;" d="M 106.566406 46.128906 L 112.777344 45.457031 C 112.046875 44.023438 111.511719 42.195312 111.292969 40.171875 C 111.089844 38.273438 111.195312 36.484375 111.542969 34.984375 L 105.4375 35.648438 C 104.855469 36.800781 104.601562 38.792969 104.839844 41.015625 C 105.078125 43.238281 105.753906 45.128906 106.566406 46.128906 "/>
<path style=" stroke:none;fill-rule:evenodd;fill:rgb(50.19989%,50.19989%,50.19989%);fill-opacity:1;" d="M 117.261719 44.96875 C 118.597656 44.824219 119.425781 42.359375 119.113281 39.464844 C 118.800781 36.570312 117.46875 34.339844 116.136719 34.488281 C 114.804688 34.628906 113.976562 37.09375 114.285156 39.988281 C 114.601562 42.882812 115.929688 45.113281 117.261719 44.96875 "/>
<path style=" stroke:none;fill-rule:evenodd;fill:rgb(71.759033%,78.039551%,72.549438%);fill-opacity:1;" d="M 116.339844 30.660156 L 116.335938 30.660156 Z M 115.65625 30.734375 L 115.097656 30.796875 C 114.984375 30.789062 114.871094 30.792969 114.753906 30.808594 C 112.316406 31.074219 110.765625 35.265625 111.292969 40.171875 C 111.820312 45.078125 114.226562 48.84375 116.667969 48.578125 L 117.910156 48.441406 C 118.023438 48.429688 118.132812 48.410156 118.246094 48.378906 L 118.25 48.40625 L 117.910156 48.441406 C 115.46875 48.707031 113.058594 44.945312 112.53125 40.039062 C 112.027344 35.359375 113.414062 31.332031 115.65625 30.734375 "/>
<path style=" stroke:none;fill-rule:evenodd;fill:rgb(0%,0%,0%);fill-opacity:1;" d="M 117.910156 48.441406 C 120.347656 48.175781 121.898438 43.984375 121.371094 39.078125 C 120.84375 34.171875 118.433594 30.40625 115.996094 30.671875 C 113.554688 30.9375 112.003906 35.128906 112.53125 40.039062 C 113.058594 44.945312 115.46875 48.707031 117.910156 48.441406 "/>
</g>
</svg>
